<?xml version="1.0" encoding="UTF-8" standalone="no"?>
<!-- Created with Inkscape (http://www.inkscape.org/) -->

<svg
   width="120mm"
   height="120mm"
   viewBox="0 0 120 120"
   version="1.1"
   id="svg2094"
   inkscape:version="1.2.1 (9c6d41e, 2022-07-14)"
   sodipodi:docname="Logo.svg"
   inkscape:export-filename="../frontend/public/favicon.png"
   inkscape:export-xdpi="96"
   inkscape:export-ydpi="96"
   xmlns:inkscape="http://www.inkscape.org/namespaces/inkscape"
   xmlns:sodipodi="http://sodipodi.sourceforge.net/DTD/sodipodi-0.dtd"
   xmlns="http://www.w3.org/2000/svg"
   xmlns:svg="http://www.w3.org/2000/svg">
  <sodipodi:namedview
     id="namedview2096"
     pagecolor="#ffffff"
     bordercolor="#000000"
     borderopacity="0.25"
     inkscape:showpageshadow="2"
     inkscape:pageopacity="0.0"
     inkscape:pagecheckerboard="0"
     inkscape:deskcolor="#d1d1d1"
     inkscape:document-units="mm"
     showgrid="false"
     inkscape:zoom="0.50327966"
     inkscape:cx="-200.68365"
     inkscape:cy="263.27311"
     inkscape:window-width="1309"
     inkscape:window-height="915"
     inkscape:window-x="0"
     inkscape:window-y="38"
     inkscape:window-maximized="0"
     inkscape:current-layer="layer1" />
  <defs
     id="defs2091" />
  <g
     inkscape:label="Layer 1"
     inkscape:groupmode="layer"
     id="layer1"
     transform="translate(-51.04852,-104.12622)">
    <path
       id="path953"
       style="fill:#000000;stroke-width:0.264583"
       d="m 118.74301,119.37205 -10.09913,0.0858 a 1.2174129,1.2174129 0 0 0 -1.04955,0.61856 l -49.015097,86.73113 c -0.404155,0.71514 -0.06593,1.29291 0.755509,1.29088 11.751244,-0.029 23.529437,0.003 35.295003,0.0202 0.109559,-0.6409 0.264827,-1.40264 0.416512,-2.01951 0.447226,-1.81847 1.336864,-4.24832 2.041736,-5.57692 0.779725,-1.46973 1.213961,-2.18836 1.816427,-3.00447 0.172273,-0.23324 0.220842,-0.33585 0.204122,-0.43098 -0.0118,-0.0687 -0.06312,-0.33132 -0.113172,-0.58394 -0.05005,-0.25263 -0.110688,-0.57571 -0.134358,-0.71778 -0.02366,-0.1422 -0.059,-0.34884 -0.07855,-0.4594 -0.06492,-0.36694 -0.299694,-1.9184 -0.338997,-2.23914 -0.175989,-1.43466 -0.265859,-2.34729 -0.33383,-3.38739 -0.07723,-1.18166 -0.08111,-1.20563 -0.201538,-1.20563 -0.05807,0 -0.174279,0.0239 -0.258382,0.0532 -0.08388,0.0294 -0.266395,0.0836 -0.40566,0.12041 -0.357864,0.0947 -0.648303,0.17408 -0.844393,0.23099 -0.494722,0.14369 -0.619121,0.17873 -0.928625,0.26355 -0.185766,0.0508 -0.432235,0.11748 -0.548287,0.1478 -0.115959,0.0303 -0.286978,0.0766 -0.379822,0.10232 -0.09288,0.0261 -0.282932,0.0772 -0.422197,0.11472 -0.139421,0.0373 -0.329333,0.089 -0.422196,0.11472 -0.09289,0.0258 -0.282413,0.0775 -0.42168,0.11472 -0.139226,0.0374 -0.329333,0.0886 -0.422196,0.11369 -0.09289,0.0249 -0.368125,0.103 -0.611849,0.17363 -0.243724,0.0706 -0.519503,0.14856 -0.612366,0.17363 -0.09287,0.0248 -0.282414,0.0761 -0.42168,0.11369 -0.139225,0.0373 -0.329352,0.089 -0.422196,0.11472 -0.09289,0.0258 -0.282932,0.0775 -0.422196,0.11473 -0.139228,0.0373 -0.328856,0.0891 -0.42168,0.11472 -0.09289,0.0258 -0.273338,0.0751 -0.401009,0.10956 -0.127687,0.0345 -0.317718,0.0904 -0.422197,0.12454 -0.397654,0.12951 -0.736843,0.13015 -1.025777,0.003 -0.239422,-0.10515 -1.164506,-0.81746 -2.456181,-1.89187 -0.208898,-0.17369 -0.76905,-0.63539 -1.244885,-1.02578 -0.475852,-0.39038 -0.90792,-0.7753 -0.960148,-0.85525 -0.0655,-0.1004 -0.09457,-0.2178 -0.09457,-0.37982 0,-0.21487 0.02428,-0.2666 0.288871,-0.61392 0.197438,-0.25912 0.401671,-0.45576 0.643889,-0.62063 0.33909,-0.23081 0.429891,-0.27709 0.823205,-0.41548 0.447146,-0.15737 1.335753,8.3e-4 1.894458,0.34003 0.04634,0.028 0.283893,0.13687 0.527617,0.24134 0.341847,0.14635 0.517846,0.18951 0.769978,0.18965 l 0.327112,5.1e-4 4.767668,-3.24424 c 2.776626,-1.8891 4.768552,-3.27641 4.769218,-3.32177 5.86e-4,-0.0427 -0.0502,-0.13333 -0.113172,-0.20102 -0.134532,-0.14447 -1.269179,-1.31438 -2.83962,-2.92747 -0.615137,-0.63182 -1.12785,-1.16435 -1.139465,-1.18339 -0.01955,-0.0303 -1.011773,-1.05203 -2.595707,-2.67012 -0.27855,-0.28455 -0.516003,-0.53105 -0.527616,-0.54829 -0.0118,-0.0171 -0.362391,-0.37973 -0.779798,-0.80512 -0.780154,-0.79505 -1.102522,-1.18275 -1.191142,-1.4335 -0.101481,-0.28735 -0.392224,-1.16027 -0.392224,-1.17771 0,-0.009 -0.06487,-0.20749 -0.14366,-0.43924 -0.07881,-0.23175 -0.194141,-0.57634 -0.256832,-0.76584 -0.216643,-0.65516 -0.379309,-1.0941 -0.690397,-1.86604 -0.493883,-1.22548 -0.59738,-1.58261 -0.59738,-2.06034 0,-0.62092 0.107544,-0.69566 1.000456,-0.69556 1.42484,1.9e-4 2.027057,0.36069 2.610693,1.56269 0.103055,0.21215 0.187069,0.3967 0.187069,0.41031 0,0.0134 0.07776,0.19867 0.172599,0.41135 0.09483,0.21271 0.207499,0.47007 0.249597,0.57206 0.04205,0.10191 0.102038,0.24709 0.133326,0.32246 0.130812,0.31601 0.353522,0.64146 0.585494,0.85576 0.1361,0.12586 0.267676,0.22892 0.292488,0.22892 0.02483,0 0.07806,0.025 0.118339,0.0553 0.04028,0.0303 0.263468,0.14945 0.495577,0.26458 0.232129,0.11511 0.545202,0.27325 0.696082,0.35192 0.150764,0.0785 0.426162,0.22055 0.611849,0.31522 0.185765,0.0947 0.375775,0.19313 0.422196,0.2186 0.04654,0.0256 0.189147,0.0975 0.316777,0.16071 0.127689,0.0632 0.388337,0.19516 0.579809,0.29301 0.191437,0.0977 0.500578,0.25562 0.686263,0.35036 0.185766,0.0947 0.489188,0.24945 0.674895,0.34417 0.907786,0.46317 1.04038,0.53104 1.118794,0.57412 0.04654,0.0255 0.18863,0.0982 0.31626,0.16123 0.127688,0.0632 0.388813,0.19462 0.580326,0.29248 0.191436,0.0977 0.505103,0.25778 0.696599,0.35553 0.191437,0.0978 0.38609,0.19873 0.432531,0.22428 0.210603,0.11602 0.768063,0.39704 0.847493,0.42736 0.0716,0.0273 0.10584,-0.0102 0.1819,-0.21394 0.0839,-0.22182 0.40184,-0.80227 0.65216,-1.18959 0.36142,-0.55923 0.82909,-1.50594 1.03508,-2.09548 0.34664,-0.99214 0.41845,-1.64776 0.25476,-2.3306 -0.18459,-0.77046 -0.61074,-1.26683 -1.36581,-1.59215 -0.54853,-0.23634 -0.78096,-0.6515 -0.81597,-1.45573 l -0.0196,-0.44028 0.1633,-0.0574 c 0.0898,-0.0315 0.29639,-0.0884 0.45889,-0.12661 0.59601,-0.1397 1.03022,-0.57497 1.27796,-1.28054 0.11146,-0.31729 0.1361,-0.4565 0.13591,-0.77205 -1.6e-4,-0.31598 -0.018,-0.41464 -0.0982,-0.55087 l -0.0972,-0.16588 -0.27182,0.13022 c -0.30908,0.14883 -0.56737,0.16808 -0.98237,0.0734 -0.36545,-0.0833 -0.45517,-0.0367 -0.56999,0.29559 -0.0706,0.20415 -0.1137,0.26304 -0.19172,0.26304 -0.13492,0 -0.36837,-0.33563 -0.535887,-0.7705 -0.07392,-0.19195 -0.244693,-0.49673 -0.379305,-0.67748 -0.297947,-0.40013 -0.480535,-0.89699 -0.522966,-1.42265 -0.01564,-0.20526 -0.04709,-0.57988 -0.06821,-0.83251 -0.02091,-0.25262 -0.05025,-0.70716 -0.06511,-1.00975 l -0.02739,-0.54984 0.129191,-0.19637 0.128675,-0.19637 1.258842,-0.0413 c 1.73491,-0.0567 2.03324,-0.12934 2.59415,-0.63149 0.42897,-0.38408 0.73517,-0.6096 1.07074,-0.7891 0.13923,-0.0743 0.27236,-0.15388 0.29559,-0.1757 0.0231,-0.0219 0.0798,-0.054 0.12609,-0.0718 0.0465,-0.0171 0.21784,-0.0872 0.38034,-0.15399 1.76299,-0.72584 3.93074,-0.45033 5.3175,0.67592 0.13923,0.11315 0.28324,0.23956 0.31988,0.28061 0.0988,0.1106 0.16611,0.0925 0.3762,-0.0997 0.48044,-0.44005 0.90956,-0.55246 1.42007,-0.37155 0.52155,0.18489 0.93169,0.58437 1.2361,1.20406 0.50316,1.02418 0.51818,2.23916 0.0398,3.20239 -0.0899,0.18129 -0.1633,0.35845 -0.1633,0.39377 0,0.0353 0.0584,0.23568 0.12971,0.44545 0.22727,0.66906 0.49707,1.66678 0.63149,2.33371 0.17344,0.86064 0.33983,1.88848 0.45992,2.8422 0.17696,1.40474 0.22847,2.42256 0.19843,3.90416 -0.0235,1.15884 -0.0415,1.49015 -0.13125,2.41174 -0.0397,0.40705 -0.17466,1.39742 -0.23461,1.72237 -0.0206,0.11048 -0.0773,0.43359 -0.12661,0.71779 -0.0495,0.28421 -0.10508,0.58096 -0.12403,0.65991 -0.0196,0.079 -0.0768,0.33729 -0.12815,0.57412 -0.11226,0.5184 -0.26221,1.14285 -0.35915,1.49397 -0.21489,0.77839 -0.33274,1.18234 -0.36019,1.23351 -0.0176,0.0315 -0.0603,0.17368 -0.0961,0.31575 -0.0357,0.14218 -0.12535,0.47776 -0.19895,0.7462 -0.0735,0.26843 -0.14898,0.56568 -0.16795,0.66043 -0.0195,0.0947 -0.0565,0.26258 -0.0837,0.3731 -0.027,0.11048 -0.0667,0.28494 -0.0879,0.38758 -0.0213,0.10272 -0.0589,0.28361 -0.0837,0.40204 -0.0801,0.3837 -0.19665,1.02448 -0.24753,1.36374 -0.0196,0.12626 -0.0653,0.43621 -0.10335,0.68885 -0.11303,0.75241 -0.19032,1.4217 -0.2589,2.23914 -0.13239,1.57893 -0.14242,4.67193 -0.0207,6.45955 0.0817,1.1992 0.19811,2.45367 0.25631,2.76262 0.0215,0.11419 0.0393,0.27898 0.0393,0.36639 0,0.0873 0.0176,0.25273 0.0393,0.3669 0.0215,0.11419 0.0627,0.36244 0.0915,0.5519 0.19027,1.25981 0.5641,2.99361 0.87333,4.04782 0.23038,0.78545 0.32057,1.05366 0.69298,2.06086 0.20314,0.54935 0.38151,1.08672 0.39636,1.19424 0.0412,0.29903 -0.0924,0.80271 -0.27906,1.05161 -0.15348,0.20476 -0.20958,0.24373 -0.59014,0.4098 -0.1044,0.0459 -0.18716,0.10805 -0.18345,0.13797 0.003,0.0302 0.0267,0.23527 0.0512,0.45631 0.0417,0.37721 0.0668,0.58925 0.17622,1.47846 0.0243,0.1974 0.0616,0.51383 0.0827,0.70332 0.0211,0.18945 0.0576,0.49988 0.0811,0.68936 0.0233,0.18945 0.0634,0.52515 0.0889,0.74621 0.0256,0.22106 0.0654,0.55722 0.0878,0.74672 0.0237,0.19866 0.0628,0.54813 0.0941,0.82269 1.29939,-0.003 2.59956,-0.005 3.89796,-0.009 0.62219,-0.002 1.12654,-0.50884 1.12654,-1.1312 v -33.3313 a 0.8203295,0.8203295 0 0 1 0.82011,-0.8201 h 12.07833 a 0.90169868,0.90169868 0 0 1 0.7736,0.43821 l 20.49125,34.20257 a 1.3121688,1.3121688 0 0 0 1.12552,0.63768 h 11.159 a 1.0125538,1.0125538 0 0 0 0.86869,-1.53272 l -21.97602,-36.69471 c -0.18791,-0.31377 -0.0636,-0.67456 0.27491,-0.81287 5.33495,-2.17924 9.54861,-5.33516 12.64058,-9.46816 3.20984,-4.33034 4.81521,-9.69381 4.81521,-16.08997 0,-4.72762 -0.91182,-8.62086 -2.73472,-11.67991 -1.78325,-3.09878 -4.27961,-5.66127 -7.48947,-7.68739 -2.85321,-1.78774 -6.06288,-3.01948 -9.62938,-3.69486 -3.56653,-0.7151 -8.02512,-1.0728 -13.3749,-1.0728 h -10.11617 z m 1.09347,10.13167 h 9.85521 c 3.17024,0 5.9245,0.23847 8.26255,0.71522 2.33803,0.437 4.35868,1.23172 6.06267,2.38382 2.06066,1.35075 3.52689,3.01898 4.3987,5.00538 0.91145,1.94667 1.36736,4.1914 1.36736,6.73395 0,3.33715 -0.43611,6.09819 -1.30793,8.28322 -0.83218,2.1453 -2.1395,4.05252 -3.92276,5.7211 -1.94177,1.78775 -4.30004,3.01949 -7.07398,3.69486 -2.77396,0.63564 -6.02322,0.95343 -9.74825,0.95343 h -7.68893 a 1.0246988,1.0246988 0 0 1 -1.02475,-1.02474 v -31.64613 a 0.8203295,0.8203295 0 0 1 0.82011,-0.82011 z" />
  </g>
</svg>
