<?xml version="1.0" standalone="no"?>
<!DOCTYPE svg PUBLIC "-//W3C//DTD SVG 20010904//EN"
 "http://www.w3.org/TR/2001/REC-SVG-20010904/DTD/svg10.dtd">
<svg version="1.0" xmlns="http://www.w3.org/2000/svg"
 width="700.000000pt" height="700.000000pt" viewBox="0 0 700.000000 700.000000"
 preserveAspectRatio="xMidYMid meet">
<metadata>
Created by potrace 1.14, written by Peter Selinger 2001-2017
</metadata>
<g transform="translate(0.000000,700.000000) scale(0.100000,-0.100000)"
fill="#000000" stroke="none">
<path d="M3342 6103 c-22 -4 -45 -35 -94 -121 -74 -132 -406 -721 -565 -1002
-104 -184 -202 -357 -218 -385 -15 -27 -66 -117 -113 -200 -47 -82 -96 -170
-110 -195 -14 -25 -70 -124 -125 -220 -54 -96 -112 -197 -127 -225 -15 -27
-65 -117 -112 -200 -47 -82 -97 -170 -111 -195 -14 -25 -121 -214 -237 -420
-117 -206 -224 -395 -238 -420 -14 -25 -43 -76 -65 -115 -22 -38 -48 -86 -59
-105 -10 -19 -23 -42 -28 -50 -8 -13 -226 -398 -328 -580 -17 -30 -109 -194
-206 -365 -97 -170 -176 -317 -176 -326 0 -45 -25 -44 1072 -44 l1039 -1 5 26
c54 236 112 385 216 547 36 56 39 67 33 105 -3 24 -8 54 -10 68 -2 14 -8 57
-14 95 -10 74 -17 128 -26 235 -3 35 -7 66 -9 67 -2 2 -94 -22 -420 -113 -106
-30 -133 -34 -153 -25 -24 11 -205 153 -249 196 -35 34 -36 52 -3 90 44 49 94
63 156 41 126 -45 98 -53 293 80 342 232 380 259 380 269 0 11 -63 77 -319
341 -86 89 -166 173 -179 186 -12 14 -42 81 -66 149 -24 68 -54 150 -66 181
-12 32 -20 70 -18 85 3 25 8 28 43 31 54 5 98 -5 123 -26 11 -10 41 -61 66
-113 25 -52 53 -99 63 -105 10 -6 130 -68 265 -138 l246 -126 39 68 c111 195
116 300 17 358 -42 25 -54 44 -60 92 -2 19 6 27 40 41 27 12 48 30 60 52 21
41 19 106 -4 100 -8 -2 -31 -4 -50 -4 -20 -1 -40 -8 -47 -16 -15 -20 -23 -12
-62 66 -25 48 -33 79 -37 146 -5 62 -3 86 6 92 7 4 49 10 94 12 53 3 90 10
107 21 15 9 46 30 70 46 116 78 273 78 373 0 28 -21 31 -21 54 -6 38 25 62 25
99 0 58 -40 81 -134 55 -223 -12 -44 -12 -56 1 -100 17 -57 32 -124 51 -240
13 -78 15 -389 3 -445 -3 -14 -8 -43 -12 -65 -3 -22 -13 -69 -21 -105 -9 -36
-17 -72 -19 -80 -2 -8 -14 -55 -28 -105 -26 -90 -49 -207 -64 -320 -16 -119
-8 -542 12 -654 1 -9 6 -34 10 -56 4 -22 9 -51 12 -65 10 -59 44 -181 71 -255
33 -91 29 -131 -12 -159 -17 -11 -24 -23 -21 -38 2 -13 6 -43 9 -68 16 -131
19 -155 21 -169 2 -9 4 -28 4 -42 l1 -25 118 1 c137 1 157 6 169 43 5 15 9
455 8 997 0 534 1 978 3 987 2 10 13 20 25 24 11 4 181 6 378 6 367 0 389 -2
404 -41 3 -7 119 -203 258 -435 138 -231 254 -426 257 -431 3 -6 157 -262 342
-571 231 -384 344 -563 360 -570 14 -6 157 -10 364 -9 368 1 374 1 374 53 0
21 -51 115 -155 286 -22 35 -124 206 -140 234 -6 9 -73 122 -150 250 -77 128
-148 248 -159 265 -10 18 -168 283 -352 589 -184 306 -334 564 -334 573 0 10
42 36 118 72 210 101 344 194 488 337 292 291 427 639 428 1096 0 341 -53 539
-210 777 -50 74 -162 198 -239 263 -93 77 -243 165 -382 224 -142 59 -369 111
-583 132 -30 3 -73 8 -95 11 -45 7 -1587 12 -1623 6z m1558 -598 c125 -17 271
-49 342 -75 141 -52 286 -155 361 -258 117 -159 157 -308 151 -565 -3 -159 -5
-186 -20 -257 -4 -19 -8 -41 -10 -47 -19 -96 -90 -250 -157 -338 -38 -51 -141
-154 -188 -190 -118 -89 -306 -158 -488 -180 -30 -4 -63 -9 -75 -11 -55 -11
-267 -18 -529 -18 -258 0 -289 2 -305 17 -16 16 -17 83 -17 961 0 813 2 945
15 961 13 16 42 17 445 12 236 -3 450 -8 475 -12z"/>
</g>
</svg>
